# xmcd
#
# Track frame offsets:
#	150
#	12880
#	26297
#	42549
#	62001
#	76274
#	94370
#	107443
#	119987
#	129233
#	146051
#	162060
#	175620
#	185944
#	206407
#	222822
#	239106
#	259486
#	282811
#	294933
#	308474
#	324273
#
# Disc length: 4539 seconds
#
# Revision: 0
# Processed by: cddbd v1.5.2PL0 Copyright (c) Steve Scherf et al.
# Submitted via: EasyCDDAExtractor 16.0.9.1
#
DISCID=3c11b916
DTITLE=Валерий и Вадим Мищуки - Российские барды 15
DYEAR=2010
DGENRE=Bard
TTITLE0=Застолье
TTITLE1=Бутылочка с винтом
TTITLE2=Цыганочка
TTITLE3=Ангел
TTITLE4=Последний рубль
TTITLE5=дорогая моя женщина
TTITLE6=Свадьба золотая
TTITLE7=И еще один март
TTITLE8=В переходе метро
TTITLE9=Я один такой
TTITLE10=Над Окой, над Окой
TTITLE11=Скоро будем дома
TTITLE12=Две дочки
TTITLE13=Кострома и Париж
TTITLE14=Тихая мелодия
TTITLE15=Я любуюсь Москвой
TTITLE16=Рижский вокзал
TTITLE17=Атлантида
TTITLE18=Добровольная тюрьма
TTITLE19=Спасибо, осень
TTITLE20=Крымский вальс
TTITLE21=Пароход
EXTD=
EXTT0=
EXTT1=
EXTT2=
EXTT3=
EXTT4=
EXTT5=
EXTT6=
EXTT7=
EXTT8=
EXTT9=
EXTT10=
EXTT11=
EXTT12=
EXTT13=
EXTT14=
EXTT15=
EXTT16=
EXTT17=
EXTT18=
EXTT19=
EXTT20=
EXTT21=
PLAYORDER=
